<?xml version="1.0" encoding="utf-8"?>
<!-- Generator: Adobe Illustrator 24.2.0, SVG Export Plug-In . SVG Version: 6.00 Build 0)  -->
<svg version="1.1" id="Layer_1" xmlns="http://www.w3.org/2000/svg" xmlns:xlink="http://www.w3.org/1999/xlink" x="0px" y="0px"
	 viewBox="0 0 32 32" style="enable-background:new 0 0 32 32;" xml:space="preserve">
<style type="text/css">
	.st0{fill:none;stroke:#757474;stroke-width:0.75;stroke-miterlimit:10;}
	.st1{display:none;fill:#757577;}
</style>
<g>
	<g id="Guide">
	</g>
	<g id="Notification">
	</g>
	<g id="New_Notification">
	</g>
	<g id="Statistic">
	</g>
	<g id="Favorite">
	</g>
	<g id="Checkbox">
	</g>
	<g id="Writing">
	</g>
	<g id="Italic">
	</g>
	<g id="Underline">
	</g>
	<g id="Setting">
		<g>
			<path class="st0" d="M26.1,17.9v-2.5L23,14.5c-0.1-0.4-0.3-0.8-0.5-1.2l1.6-2.9l-1.8-1.8l-2.9,1.6C19,10,18.6,9.9,18.2,9.7
				l-0.9-3.1h-2.5l-0.9,3.1c-0.4,0.1-0.8,0.3-1.2,0.5L9.8,8.6L8,10.4l1.6,2.9c-0.2,0.4-0.4,0.8-0.5,1.2L6,15.4v2.5l3.1,0.9
				c0.1,0.4,0.3,0.8,0.5,1.2L8,22.8l1.8,1.8l2.8-1.6c0.4,0.2,0.8,0.4,1.2,0.5l0.9,3.1h2.5l0.9-3.1c0.4-0.1,0.8-0.3,1.2-0.5l2.8,1.6
				l1.8-1.8L22.4,20c0.2-0.4,0.4-0.8,0.5-1.2L26.1,17.9z"/>
			<circle class="st0" cx="16" cy="16.6" r="4.6"/>
		</g>
	</g>
	<g id="Power">
	</g>
</g>
<polygon class="st1" points="28.7,27.8 32,23.5 25.4,23.5 "/>
</svg>
